<svg width="26" height="26" viewBox="0 0 26 26" fill="none" xmlns="http://www.w3.org/2000/svg">
<path d="M4.82173 15.0671L12.3537 22.1427C12.641 22.4125 12.7847 22.5475 12.9581 22.5621C12.9861 22.5645 13.0142 22.5645 13.0422 22.5621C13.2157 22.5475 13.3593 22.4125 13.6466 22.1427L21.1786 15.0671C23.2978 13.0764 23.5551 9.8004 21.7728 7.50316L21.4377 7.0712C19.3055 4.32305 15.0256 4.78393 13.5274 7.92304C13.3158 8.36646 12.6846 8.36646 12.4729 7.92304C10.9747 4.78393 6.69486 4.32305 4.56267 7.0712L4.22753 7.50316C2.44519 9.8004 2.70254 13.0764 4.82173 15.0671Z" stroke="white"/>
</svg>
