<svg width="35" height="35" viewBox="0 0 35 35" fill="none" xmlns="http://www.w3.org/2000/svg">
<path d="M5.8335 17.125C5.8335 15.2394 5.8335 14.2966 6.41928 13.7108C7.00507 13.125 7.94788 13.125 9.8335 13.125H25.1668C27.0524 13.125 27.9953 13.125 28.581 13.7108C29.1668 14.2966 29.1668 15.2394 29.1668 17.125V24.625C29.1668 27.4534 29.1668 28.8676 28.2882 29.7463C27.4095 30.625 25.9953 30.625 23.1668 30.625H11.8335C9.00507 30.625 7.59086 30.625 6.71218 29.7463C5.8335 28.8676 5.8335 27.4534 5.8335 24.625V17.125Z" stroke="white" stroke-opacity="0.98" stroke-width="2"/>
<path d="M23.3337 11.6667V10.2083C23.3337 9.4343 23.3337 9.04728 23.2909 8.72237C22.9955 6.4787 21.23 4.71316 18.9863 4.41778C18.6614 4.375 18.2744 4.375 17.5003 4.375V4.375C16.7263 4.375 16.3393 4.375 16.0144 4.41778C13.7707 4.71316 12.0052 6.4787 11.7098 8.72237C11.667 9.04728 11.667 9.4343 11.667 10.2083V11.6667" stroke="white" stroke-opacity="0.98" stroke-width="2" stroke-linecap="round"/>
<circle cx="17.5002" cy="21.8749" r="2.91667" fill="white" fill-opacity="0.98"/>
</svg>
