<svg width="35" height="35" viewBox="0 0 35 35" fill="none" xmlns="http://www.w3.org/2000/svg">
<path d="M5.8335 17.1252C5.8335 15.2396 5.8335 14.2968 6.41928 13.711C7.00507 13.1252 7.94788 13.1252 9.8335 13.1252H25.1668C27.0524 13.1252 27.9953 13.1252 28.581 13.711C29.1668 14.2968 29.1668 15.2396 29.1668 17.1252V24.6252C29.1668 27.4537 29.1668 28.8679 28.2882 29.7466C27.4095 30.6252 25.9953 30.6252 23.1668 30.6252H11.8335C9.00507 30.6252 7.59086 30.6252 6.71218 29.7466C5.8335 28.8679 5.8335 27.4537 5.8335 24.6252V17.1252Z" stroke="#FDF9F9" stroke-width="2"/>
<path d="M24.0627 13.125L24.1759 12.22C24.5535 9.19892 23.1941 6.22337 20.6631 4.53111V4.53111C17.6496 2.51618 13.6609 2.76453 10.9206 5.13771L9.72721 6.17121" stroke="#FDF9F9" stroke-width="2" stroke-linecap="round"/>
<circle cx="17.5002" cy="21.8749" r="2.91667" fill="#FDF9F9"/>
</svg>
