<svg width="26" height="26" viewBox="0 0 26 26" fill="none" xmlns="http://www.w3.org/2000/svg">
<path fill-rule="evenodd" clip-rule="evenodd" d="M1.625 10.875C1.625 5.76637 5.76637 1.625 10.875 1.625C15.9836 1.625 20.125 5.76637 20.125 10.875C20.125 15.9836 15.9836 20.125 10.875 20.125C5.76637 20.125 1.625 15.9836 1.625 10.875ZM10.875 0.625C5.21408 0.625 0.625 5.21408 0.625 10.875C0.625 16.5359 5.21408 21.125 10.875 21.125C16.5359 21.125 21.125 16.5359 21.125 10.875C21.125 5.21408 16.5359 0.625 10.875 0.625ZM20.9786 20.2714C20.7833 20.0762 20.4667 20.0762 20.2714 20.2714C20.0762 20.4667 20.0762 20.7833 20.2714 20.9786L25.1464 25.8536C25.3417 26.0488 25.6583 26.0488 25.8536 25.8536C26.0488 25.6583 26.0488 25.3417 25.8536 25.1464L20.9786 20.2714Z" fill="#222222"/>
</svg>
