<svg width="35" height="35" viewBox="0 0 35 35" fill="none" xmlns="http://www.w3.org/2000/svg">
<path d="M13.599 27.0874C13.8407 26.9506 14.0322 26.7579 14.1834 26.6058C14.1972 26.592 14.2106 26.5785 14.2237 26.5654L25.5427 15.2463C25.5556 15.2335 25.5684 15.2207 25.5812 15.2079C25.8811 14.9081 26.1726 14.6167 26.3806 14.344C26.6152 14.0366 26.8356 13.6387 26.8356 13.125C26.8356 12.6113 26.6152 12.2134 26.3806 11.906C26.1726 11.6333 25.8811 11.3419 25.5812 11.0421C25.5684 11.0293 25.5556 11.0165 25.5427 11.0037L23.9962 9.45711C23.9833 9.44427 23.9705 9.43145 23.9577 9.41864C23.6579 9.11872 23.3665 8.82724 23.0939 8.61919C22.7865 8.38466 22.3885 8.16421 21.8748 8.16421C21.3612 8.16421 20.9632 8.38466 20.6558 8.61919C20.3831 8.82723 20.0918 9.11871 19.792 9.41863C19.7792 9.43144 19.7664 9.44427 19.7535 9.45711L8.43444 20.7762C8.42137 20.7893 8.40789 20.8027 8.39408 20.8164C8.2419 20.9676 8.04929 21.1591 7.9124 21.4009L8.7826 21.8936L7.9124 21.4009C7.77552 21.6426 7.71045 21.9063 7.65904 22.1146C7.65438 22.1335 7.64982 22.152 7.64534 22.1699L6.52347 26.6573L7.49362 26.8999L13.1063 26.2172M13.599 27.0874L13.1063 26.2172M13.599 27.0874C13.599 27.0874 13.599 27.0874 13.599 27.0874L13.1063 26.2172M13.599 27.0874C13.3572 27.2243 13.0935 27.2894 12.8853 27.3408C12.8663 27.3455 12.8479 27.35 12.8299 27.3545L8.34249 28.4764C8.33129 28.4792 8.31967 28.4821 8.30768 28.4851C8.16119 28.5219 7.95826 28.5729 7.77864 28.5905C7.57195 28.6107 7.11999 28.6174 6.75122 28.2486L7.45832 27.5415C7.55841 27.6416 7.73892 27.5965 8.09996 27.5062L12.5874 26.3844C12.8545 26.3176 12.988 26.2842 13.1063 26.2172" stroke="#FDF9F9" stroke-width="2"/>
<path d="M18.229 10.9374L22.604 8.02075L26.979 12.3958L24.0623 16.7708L18.229 10.9374Z" fill="#FDF9F9"/>
</svg>
