<svg width="25" height="25" viewBox="0 0 25 25" fill="none" xmlns="http://www.w3.org/2000/svg">
<path d="M20.0839 18.2305L20.4393 18.5822L20.791 18.2268L20.4355 17.8751L20.0839 18.2305ZM6.57354 16.3014C6.57209 16.0253 6.34706 15.8026 6.07092 15.8041C5.79479 15.8055 5.57211 16.0305 5.57356 16.3067L6.57354 16.3014ZM17.4551 21.5979L20.4393 18.5822L19.7285 17.8788L16.7442 20.8945L17.4551 21.5979ZM20.4355 17.8751L17.4198 14.8909L16.7165 15.6017L19.7322 18.5859L20.4355 17.8751ZM20.0812 17.7305L8.0814 17.7935L8.08665 18.7935L20.0865 18.7305L20.0812 17.7305ZM8.0814 17.7935C7.25298 17.7979 6.57789 17.1298 6.57354 16.3014L5.57356 16.3067C5.58081 17.6874 6.70596 18.8008 8.08665 18.7935L8.0814 17.7935Z" fill="#9104FF"/>
<path d="M4.04187 8.23051L3.69017 8.58592L3.33477 8.23422L3.68646 7.87882L4.04187 8.23051ZM17.0417 8.16225L17.0391 7.66226L17.0417 8.16225ZM19.5522 10.1491C19.5536 10.4252 19.3309 10.6503 19.0548 10.6517C18.7786 10.6532 18.5536 10.4305 18.5522 10.1543L19.5522 10.1491ZM6.70588 11.5701L3.69017 8.58592L4.39356 7.87511L7.40927 10.8593L6.70588 11.5701ZM3.68646 7.87882L6.67067 4.86311L7.38148 5.56649L4.39727 8.5822L3.68646 7.87882ZM4.03924 7.73052L17.0391 7.66226L17.0443 8.66224L4.04449 8.7305L4.03924 7.73052ZM17.0391 7.66226C18.4198 7.65501 19.5449 8.76841 19.5522 10.1491L18.5522 10.1543C18.5478 9.32593 17.8727 8.6579 17.0443 8.66224L17.0391 7.66226Z" fill="#9104FF"/>
</svg>
