<svg width="25" height="25" viewBox="0 0 25 25" fill="none" xmlns="http://www.w3.org/2000/svg">
<path d="M20.0839 18.1048L20.4393 18.4565L20.791 18.1011L20.4355 17.7494L20.0839 18.1048ZM6.57354 16.1757C6.57209 15.8995 6.34706 15.6769 6.07092 15.6783C5.79479 15.6798 5.57211 15.9048 5.57356 16.1809L6.57354 16.1757ZM17.4551 21.4722L20.4393 18.4565L19.7285 17.7531L16.7442 20.7688L17.4551 21.4722ZM20.4355 17.7494L17.4198 14.7652L16.7165 15.476L19.7322 18.4602L20.4355 17.7494ZM20.0812 17.6048L8.0814 17.6678L8.08665 18.6678L20.0865 18.6048L20.0812 17.6048ZM8.0814 17.6678C7.25298 17.6721 6.57789 17.0041 6.57354 16.1757L5.57356 16.1809C5.58081 17.5616 6.70596 18.675 8.08665 18.6678L8.0814 17.6678Z" fill="white"/>
<path d="M4.04187 8.10478L3.69017 8.46018L3.33477 8.10849L3.68646 7.75309L4.04187 8.10478ZM17.0417 8.03652L17.0391 7.53653L17.0417 8.03652ZM19.5522 10.0234C19.5536 10.2995 19.3309 10.5245 19.0548 10.526C18.7786 10.5274 18.5536 10.3048 18.5522 10.0286L19.5522 10.0234ZM6.70588 11.4444L3.69017 8.46018L4.39356 7.74937L7.40927 10.7336L6.70588 11.4444ZM3.68646 7.75309L6.67067 4.73738L7.38148 5.44076L4.39727 8.45647L3.68646 7.75309ZM4.03924 7.60478L17.0391 7.53653L17.0443 8.53651L4.04449 8.60477L4.03924 7.60478ZM17.0391 7.53653C18.4198 7.52928 19.5449 8.64267 19.5522 10.0234L18.5522 10.0286C18.5478 9.2002 17.8727 8.53216 17.0443 8.53651L17.0391 7.53653Z" fill="white"/>
</svg>
